<svg xmlns="http://www.w3.org/2000/svg" viewBox="0 0 110 95">
  <defs>
    <linearGradient id="cloudGrad" x1="0" y1="0" x2="110" y2="95" gradientUnits="userSpaceOnUse">
      <stop offset="0%" stop-color="#5DCAF0"/>
      <stop offset="100%" stop-color="#1E84CC"/>
    </linearGradient>
  </defs>
  <!-- Cloud body -->
  <path d="
    M 22,78
    C 9,78 2,68 2,58
    C 2,48 9,40 19,39
    C 17,23 30,10 46,10
    C 55,10 63,15 68,22
    C 74,13 84,7 96,8
    C 106,9 112,18 110,28
    C 112,33 112,39 110,44
    C 112,52 108,62 98,68
    C 93,74 86,78 78,78
    Z
  " fill="url(#cloudGrad)"/>
  <!-- Terminal chevron > -->
  <polyline points="28,38 50,55 28,72"
    fill="none" stroke="white" stroke-width="9"
    stroke-linecap="round" stroke-linejoin="round"/>
  <!-- Terminal underscore _ -->
  <rect x="58" y="67" width="28" height="9" rx="4.5" fill="white"/>
</svg>
